<svg width="112" height="112" viewBox="0 0 112 112" fill="none" xmlns="http://www.w3.org/2000/svg">
<path d="M55.9999 34.2207C55.9999 25.6667 48.9999 18.6667 40.4459 18.6667H9.33325V74.6667H40.6373C55.9999 74.6667 55.9999 90.2254 55.9999 90.2254M55.9999 34.2207C55.9999 25.6621 62.9999 18.6667 71.5539 18.6667H102.667V74.6667H71.5539C55.9999 74.6667 55.9999 90.2254 55.9999 90.2254M55.9999 34.2207V90.2254M64.7499 95.4707C65.7236 93.4541 67.2405 91.749 69.13 90.5471C71.0194 89.3451 73.2067 88.694 75.4459 88.6667H97.9999M47.2499 95.4707C46.294 93.4405 44.7814 91.7232 42.8879 90.5188C40.9945 89.3143 38.798 88.6721 36.5539 88.6667H13.9999" stroke="#8492CC" stroke-width="6" stroke-miterlimit="10" stroke-linecap="round" stroke-linejoin="round"/>
</svg>
