<svg width="41" height="41" viewBox="0 0 41 41" fill="none" xmlns="http://www.w3.org/2000/svg">
<rect width="41" height="41" rx="10" fill="#EF8354"/>
<path d="M22.3333 14.6667V9.33333C22.3333 8.95556 22.4613 8.63911 22.7173 8.384C22.9733 8.12889 23.2898 8.00089 23.6667 8H31.6667C32.0444 8 32.3613 8.128 32.6173 8.384C32.8733 8.64 33.0009 8.95644 33 9.33333V14.6667C33 15.0444 32.872 15.3613 32.616 15.6173C32.36 15.8733 32.0436 16.0009 31.6667 16H23.6667C23.2889 16 22.9724 15.872 22.7173 15.616C22.4622 15.36 22.3342 15.0436 22.3333 14.6667ZM9 20V9.33333C9 8.95556 9.128 8.63911 9.384 8.384C9.64 8.12889 9.95644 8.00089 10.3333 8H18.3333C18.7111 8 19.028 8.128 19.284 8.384C19.54 8.64 19.6676 8.95644 19.6667 9.33333V20C19.6667 20.3778 19.5387 20.6947 19.2827 20.9507C19.0267 21.2067 18.7102 21.3342 18.3333 21.3333H10.3333C9.95556 21.3333 9.63911 21.2053 9.384 20.9493C9.12889 20.6933 9.00089 20.3769 9 20ZM22.3333 30.6667V20C22.3333 19.6222 22.4613 19.3058 22.7173 19.0507C22.9733 18.7956 23.2898 18.6676 23.6667 18.6667H31.6667C32.0444 18.6667 32.3613 18.7947 32.6173 19.0507C32.8733 19.3067 33.0009 19.6231 33 20V30.6667C33 31.0444 32.872 31.3613 32.616 31.6173C32.36 31.8733 32.0436 32.0009 31.6667 32H23.6667C23.2889 32 22.9724 31.872 22.7173 31.616C22.4622 31.36 22.3342 31.0436 22.3333 30.6667ZM9 30.6667V25.3333C9 24.9556 9.128 24.6391 9.384 24.384C9.64 24.1289 9.95644 24.0009 10.3333 24H18.3333C18.7111 24 19.028 24.128 19.284 24.384C19.54 24.64 19.6676 24.9564 19.6667 25.3333V30.6667C19.6667 31.0444 19.5387 31.3613 19.2827 31.6173C19.0267 31.8733 18.7102 32.0009 18.3333 32H10.3333C9.95556 32 9.63911 31.872 9.384 31.616C9.12889 31.36 9.00089 31.0436 9 30.6667ZM11.6667 18.6667H17V10.6667H11.6667V18.6667ZM25 29.3333H30.3333V21.3333H25V29.3333ZM25 13.3333H30.3333V10.6667H25V13.3333ZM11.6667 29.3333H17V26.6667H11.6667V29.3333Z" fill="#FFFCF9"/>
</svg>
