<svg width="41" height="41" viewBox="0 0 41 41" fill="none" xmlns="http://www.w3.org/2000/svg">
<rect width="41" height="41" rx="10" fill="#EF8354"/>
<path d="M11.9583 30.9975H16.6458V23.2832C16.6458 22.8461 16.7958 22.4799 17.0958 22.1847C17.3958 21.8895 17.7666 21.7414 18.2082 21.7404H24.4582C24.901 21.7404 25.2723 21.8885 25.5723 22.1847C25.8723 22.481 26.0218 22.8471 26.0207 23.2832V30.9975H30.7082V17.1118L21.3332 10.169L11.9583 17.1118V30.9975ZM8.83325 30.9975V17.1118C8.83325 16.6232 8.94419 16.1604 9.16606 15.7233C9.38794 15.2861 9.69367 14.9261 10.0833 14.6432L19.4582 7.70039C20.0051 7.28897 20.6301 7.08325 21.3332 7.08325C22.0364 7.08325 22.6614 7.28897 23.2082 7.70039L32.5832 14.6432C32.9739 14.9261 33.2801 15.2861 33.502 15.7233C33.7239 16.1604 33.8343 16.6232 33.8332 17.1118V30.9975C33.8332 31.8461 33.527 32.5728 32.9145 33.1776C32.302 33.7824 31.5666 34.0843 30.7082 34.0832H24.4582C24.0155 34.0832 23.6447 33.9351 23.3457 33.6389C23.0468 33.3427 22.8968 32.9765 22.8957 32.5404V24.8261H19.7707V32.5404C19.7707 32.9775 19.6207 33.3442 19.3207 33.6404C19.0207 33.9367 18.6499 34.0843 18.2082 34.0832H11.9583C11.0989 34.0832 10.3635 33.7814 9.752 33.1776C9.14054 32.5738 8.83429 31.8471 8.83325 30.9975Z" fill="#FFFCF9"/>
</svg>
