<svg width="428" height="295" viewBox="0 0 428 295" fill="none" xmlns="http://www.w3.org/2000/svg">
<path d="M53.08 283.48C51.0267 283.48 49.2267 283.12 47.68 282.4C46.1333 281.653 44.9333 280.613 44.08 279.28C43.2267 277.947 42.8 276.387 42.8 274.6H47C47.0267 275.613 47.2667 276.547 47.72 277.4C48.2 278.227 48.88 278.893 49.76 279.4C50.6667 279.88 51.7733 280.12 53.08 280.12C54.2 280.12 55.16 279.933 55.96 279.56C56.7867 279.187 57.4133 278.68 57.84 278.04C58.2667 277.373 58.48 276.613 58.48 275.76C58.48 274.773 58.2533 273.96 57.8 273.32C57.3467 272.68 56.7333 272.16 55.96 271.76C55.2133 271.333 54.3333 270.96 53.32 270.64C52.3333 270.32 51.2933 269.973 50.2 269.6C47.9867 268.88 46.3333 267.947 45.24 266.8C44.1733 265.653 43.64 264.16 43.64 262.32C43.64 260.747 44.0133 259.387 44.76 258.24C45.5067 257.067 46.5467 256.16 47.88 255.52C49.24 254.853 50.84 254.52 52.68 254.52C54.4933 254.52 56.08 254.853 57.44 255.52C58.8 256.187 59.8667 257.107 60.64 258.28C61.4133 259.453 61.8 260.827 61.8 262.4H57.56C57.56 261.68 57.3733 260.973 57 260.28C56.6267 259.587 56.0667 259.027 55.32 258.6C54.5733 258.147 53.6533 257.92 52.56 257.92C51.6533 257.893 50.84 258.04 50.12 258.36C49.4 258.68 48.84 259.147 48.44 259.76C48.04 260.373 47.84 261.107 47.84 261.96C47.84 262.813 48.0133 263.507 48.36 264.04C48.7333 264.547 49.2667 264.987 49.96 265.36C50.6533 265.733 51.4533 266.08 52.36 266.4C53.2933 266.693 54.32 267.027 55.44 267.4C56.8267 267.853 58.0533 268.413 59.12 269.08C60.2133 269.72 61.0667 270.56 61.68 271.6C62.32 272.613 62.64 273.92 62.64 275.52C62.64 276.907 62.28 278.2 61.56 279.4C60.84 280.6 59.7733 281.587 58.36 282.36C56.9467 283.107 55.1867 283.48 53.08 283.48ZM84.9966 283V255H88.9966V283H84.9966ZM112.44 283V255H122C124.24 255 126.08 255.373 127.52 256.12C128.96 256.867 130.027 257.867 130.72 259.12C131.414 260.373 131.76 261.8 131.76 263.4C131.76 264.92 131.414 266.32 130.72 267.6C130.054 268.853 129 269.867 127.56 270.64C126.12 271.387 124.267 271.76 122 271.76H116.44V283H112.44ZM116.44 268.44H121.84C123.947 268.44 125.44 267.987 126.32 267.08C127.227 266.147 127.68 264.92 127.68 263.4C127.68 261.773 127.227 260.52 126.32 259.64C125.44 258.76 123.947 258.32 121.84 258.32H116.44V268.44ZM163.993 283.48C162.02 283.48 160.233 283.093 158.633 282.32C157.033 281.52 155.753 280.32 154.793 278.72C153.86 277.093 153.393 275.027 153.393 272.52V255H157.393V272.56C157.393 274.24 157.673 275.627 158.233 276.72C158.793 277.787 159.566 278.587 160.553 279.12C161.566 279.627 162.74 279.88 164.073 279.88C165.433 279.88 166.606 279.627 167.593 279.12C168.58 278.587 169.34 277.787 169.873 276.72C170.433 275.627 170.713 274.24 170.713 272.56V255H174.713V272.52C174.713 275.027 174.233 277.093 173.273 278.72C172.313 280.32 171.02 281.52 169.393 282.32C167.766 283.093 165.966 283.48 163.993 283.48ZM207.035 283.48C204.981 283.48 203.181 283.12 201.635 282.4C200.088 281.653 198.888 280.613 198.035 279.28C197.181 277.947 196.755 276.387 196.755 274.6H200.955C200.981 275.613 201.221 276.547 201.675 277.4C202.155 278.227 202.835 278.893 203.715 279.4C204.621 279.88 205.728 280.12 207.035 280.12C208.155 280.12 209.115 279.933 209.915 279.56C210.741 279.187 211.368 278.68 211.795 278.04C212.221 277.373 212.435 276.613 212.435 275.76C212.435 274.773 212.208 273.96 211.755 273.32C211.301 272.68 210.688 272.16 209.915 271.76C209.168 271.333 208.288 270.96 207.275 270.64C206.288 270.32 205.248 269.973 204.155 269.6C201.941 268.88 200.288 267.947 199.195 266.8C198.128 265.653 197.595 264.16 197.595 262.32C197.595 260.747 197.968 259.387 198.715 258.24C199.461 257.067 200.501 256.16 201.835 255.52C203.195 254.853 204.795 254.52 206.635 254.52C208.448 254.52 210.035 254.853 211.395 255.52C212.755 256.187 213.821 257.107 214.595 258.28C215.368 259.453 215.755 260.827 215.755 262.4H211.515C211.515 261.68 211.328 260.973 210.955 260.28C210.581 259.587 210.021 259.027 209.275 258.6C208.528 258.147 207.608 257.92 206.515 257.92C205.608 257.893 204.795 258.04 204.075 258.36C203.355 258.68 202.795 259.147 202.395 259.76C201.995 260.373 201.795 261.107 201.795 261.96C201.795 262.813 201.968 263.507 202.315 264.04C202.688 264.547 203.221 264.987 203.915 265.36C204.608 265.733 205.408 266.08 206.315 266.4C207.248 266.693 208.275 267.027 209.395 267.4C210.781 267.853 212.008 268.413 213.075 269.08C214.168 269.72 215.021 270.56 215.635 271.6C216.275 272.613 216.595 273.92 216.595 275.52C216.595 276.907 216.235 278.2 215.515 279.4C214.795 280.6 213.728 281.587 212.315 282.36C210.901 283.107 209.141 283.48 207.035 283.48ZM244.924 283V258.28H236.644V255H257.244V258.28H248.924V283H244.924ZM274.009 283L284.289 255H288.649L298.929 283H294.649L286.449 259.8L278.209 283H274.009ZM278.649 276.08L279.769 272.88H292.929L294.049 276.08H278.649ZM320.518 283V255H324.518V267.16L335.718 255H340.718L330.318 266.12L340.918 283H336.038L327.478 269.24L324.518 272.4V283H320.518ZM360.576 283L370.856 255H375.216L385.496 283H381.216L373.016 259.8L364.776 283H360.576ZM365.216 276.08L366.336 272.88H379.496L380.616 276.08H365.216Z" fill="#2D3142"/>
<path d="M3.4186 207.719L16.2181 143.356C16.9771 139.539 20.1719 136.687 24.0496 136.364C29.8027 135.884 34.4265 141.025 33.3424 146.695L25.4943 187.747C24.0483 195.31 30.6214 201.978 38.2308 200.799C114.228 189.018 154.741 195.905 213.75 227.774C272.759 195.905 313.272 189.018 389.269 200.799C396.879 201.978 403.452 195.31 402.006 187.747L394.158 146.695C393.074 141.025 397.697 135.884 403.45 136.364C407.328 136.687 410.523 139.539 411.282 143.356L424.081 207.719C425.663 215.674 418.363 222.545 410.463 220.705C348.268 206.221 308.575 207.525 242 227.909C231.176 237.977 222.635 242.908 213.75 242.633C204.865 242.908 196.324 237.977 185.5 227.909C118.925 207.525 79.2317 206.221 17.0372 220.705C9.13746 222.545 1.83657 215.674 3.4186 207.719Z" fill="#2D3142"/>
<path d="M38.9936 175.872L48.4321 125.309C49.3545 120.367 53.5163 116.663 58.5379 116.426C130.807 113.01 165.834 129.542 195.961 187.748C200.664 196.835 190.848 206.187 181.431 202.183C137.113 183.341 103.031 180.193 52.0569 188.899C44.3682 190.213 37.5623 183.54 38.9936 175.872Z" fill="#8492CC"/>
<path d="M393.506 175.872L384.068 125.309C383.145 120.367 378.984 116.663 373.962 116.426C301.693 113.01 266.666 129.542 236.539 187.748C231.836 196.835 241.652 206.187 251.069 202.183C295.387 183.341 329.469 180.193 380.443 188.899C388.132 190.213 394.938 183.54 393.506 175.872Z" fill="#8492CC"/>
<path d="M276.534 40.5917C286.684 62.651 284.381 88.618 273.143 109.722C263.923 127.036 250.164 141.356 238.826 157.207C233.642 164.464 228.409 172.009 224.85 180.272C223.669 183.021 222.647 185.838 221.642 188.663C220.629 191.48 219.767 194.356 218.795 197.189C217.882 199.845 216.819 202.975 213.545 203H213.486C209.584 202.992 208.637 198.517 207.666 195.497C205.288 188.105 202.801 181.008 199.133 174.14C194.862 166.156 189.545 158.771 184.143 151.548L276.534 40.5917ZM184.57 65.1716L151.417 104.985C157.48 118.011 166.667 129.201 175.459 140.341C177.531 142.963 179.588 145.602 181.631 148.258L223.367 98.1421L223.125 98.2267C208.545 103.31 192.216 95.7653 186.346 81.42C185.544 79.4722 184.957 77.4413 184.595 75.3638C184.068 71.6676 183.951 68.9271 184.562 65.2308L184.57 65.1716ZM159.004 26.6354L158.979 26.6693C142.675 47.5275 139.878 76.4042 149.625 100.849L189.695 52.7294L189.21 52.3065L159.004 26.6354ZM235.786 3.68799L203.646 42.2833L203.873 42.1988C217.271 37.5382 232.37 43.4675 239.211 55.952C240.685 58.6502 241.916 61.729 242.368 64.7909C242.938 68.5634 243.08 71.3292 242.469 75.1101L242.444 75.2454L274.566 36.667C266.173 21.2012 252.373 9.45149 235.862 3.71337L235.786 3.68799ZM192.283 49.6336L231.607 2.41078L231.214 2.30928C225.395 0.763394 219.402 -0.0128026 213.386 0.000159694C203.643 0.092837 194.025 2.21899 185.135 6.24511C176.245 10.2712 168.275 16.1104 161.726 23.3959L161.592 23.5481L192.283 49.6336Z" fill="#EF8354"/>
</svg>
