<svg width="41" height="41" viewBox="0 0 41 41" fill="none" xmlns="http://www.w3.org/2000/svg">
<rect width="41" height="41" rx="10" fill="#E9E9E9"/>
<path d="M11.7801 32C11.0614 32 10.4463 31.7391 9.93491 31.2173C9.42351 30.6955 9.16738 30.0675 9.1665 29.3333V10.6667C9.1665 9.93333 9.42264 9.30578 9.93491 8.784C10.4472 8.26222 11.0623 8.00089 11.7801 8H19.621C19.9913 8 20.3019 8.128 20.5528 8.384C20.8037 8.64 20.9287 8.95644 20.9279 9.33333C20.927 9.71022 20.8015 10.0271 20.5515 10.284C20.3015 10.5409 19.9913 10.6684 19.621 10.6667H11.7801V29.3333H19.621C19.9913 29.3333 20.3019 29.4613 20.5528 29.7173C20.8037 29.9733 20.9287 30.2898 20.9279 30.6666C20.927 31.0435 20.8015 31.3604 20.5515 31.6173C20.3015 31.8742 19.9913 32.0018 19.621 32H11.7801ZM27.6906 21.3333H18.3142C17.944 21.3333 17.6338 21.2053 17.3838 20.9493C17.1337 20.6933 17.0083 20.3769 17.0074 20C17.0065 19.6231 17.132 19.3067 17.3838 19.0507C17.6356 18.7947 17.9457 18.6667 18.3142 18.6667H27.6906L25.2404 16.1667C25.0008 15.9222 24.881 15.6222 24.881 15.2667C24.881 14.9111 25.0008 14.6 25.2404 14.3333C25.48 14.0667 25.7849 13.9276 26.1551 13.916C26.5254 13.9044 26.8412 14.0324 27.1026 14.3L31.7745 19.0667C32.0358 19.3333 32.1665 19.6444 32.1665 20C32.1665 20.3555 32.0358 20.6667 31.7745 20.9333L27.1026 25.7C26.8412 25.9667 26.5311 26.0947 26.1721 26.084C25.8132 26.0733 25.5026 25.9342 25.2404 25.6667C25.0008 25.4 24.8867 25.0835 24.898 24.7173C24.9093 24.3511 25.0343 24.0453 25.273 23.8L27.6906 21.3333Z" fill="#585858"/>
</svg>
